<?xml version="1.0" encoding="UTF-8" standalone="no"?>
<svg
   xmlns:dc="http://purl.org/dc/elements/1.1/"
   xmlns:cc="http://creativecommons.org/ns#"
   xmlns:rdf="http://www.w3.org/1999/02/22-rdf-syntax-ns#"
   xmlns:svg="http://www.w3.org/2000/svg"
   xmlns="http://www.w3.org/2000/svg"
   xmlns:sodipodi="http://sodipodi.sourceforge.net/DTD/sodipodi-0.dtd"
   xmlns:inkscape="http://www.inkscape.org/namespaces/inkscape"
   enable-background="new 0 0 512 454.633"
   height="454.633px"
   id="Layer_1"
   version="1.1"
   viewBox="0 0 512 454.633"
   width="512px"
   x="0px"
   xml:space="preserve"
   y="0px"
   inkscape:version="0.48.4 r9939"
   sodipodi:docname="brush.svg"><metadata
     id="metadata15"><rdf:RDF><cc:Work
         rdf:about=""><dc:format>image/svg+xml</dc:format><dc:type
           rdf:resource="http://purl.org/dc/dcmitype/StillImage" /><dc:title /></cc:Work></rdf:RDF></metadata><defs
     id="defs13" /><sodipodi:namedview
     pagecolor="#ffffff"
     bordercolor="#666666"
     borderopacity="1"
     objecttolerance="10"
     gridtolerance="10"
     guidetolerance="10"
     inkscape:pageopacity="0"
     inkscape:pageshadow="2"
     inkscape:window-width="1304"
     inkscape:window-height="745"
     id="namedview11"
     showgrid="false"
     inkscape:zoom="0.51910003"
     inkscape:cx="255.81888"
     inkscape:cy="227.59572"
     inkscape:window-x="54"
     inkscape:window-y="-8"
     inkscape:window-maximized="1"
     inkscape:current-layer="Layer_1" /><g
     id="meanicons_x5F_14"
     transform="matrix(0.99428567,0,0,0.99263181,0.49966735,0.71169441)"><g
       id="g4"><path
         d="m 202.271,243.812 c -9.741,10.73 -12.13,18.428 -24.884,38.588 8.237,5.752 24.104,19.055 35.095,41.959 21.953,-12.592 32.188,-14.514 43.821,-24.309 C 332.24,236.092 518.244,6.836 511.839,0.204 505.073,-6.846 269.135,170.472 202.271,243.812 z"
         id="path6"
         inkscape:connector-curvature="0" /><path
         d="m 155.442,300.209 c -32.998,-5.832 -65.547,15.028 -87.288,67.147 -21.772,52.115 -60.622,72.981 -68.153,71.705 40.553,14.67 164.202,52.194 194.939,-90.655 -13.037,-34.26 -39.498,-48.197 -39.498,-48.197 z"
         id="path8"
         inkscape:connector-curvature="0" /></g></g><g
     id="Layer_1_1_" /></svg>